<svg xmlns="http://www.w3.org/2000/svg" viewBox="0 0 558.92 504.05"><defs><style>.cls-1{fill:#445a69;}.cls-2{fill:#fff;}.cls-3{fill:#fcfcfc;}.cls-4{fill:salmon;}.cls-5{fill:#f4f4f4;}</style></defs><g id="Layer_2" data-name="Layer 2"><path class="cls-1" d="M-231.26-213.1C-188.9-187.89-182-110.2-189.86-46s-30.5,114.9-62.54,150.81-73.25,56.86-123.34,91.49-109,82.85-171.31,84.39S-674.9,237.19-711.78,174.78s-45-142-19-203,85.94-103.09,141.91-125.92S-481-180.35-416.1-195.69s142.48-42.62,184.84-17.41" transform="translate(745.96 223.36)"/></g><g id="Layer_1" data-name="Layer 1"><path class="cls-2" d="M-274.57-82.84c-2.61-.23-5.19-.59-2.13,3.18,1.23,1.51,1.91,3.48,2.83,5.25,3.38,6.53,7,11.31,16.08,10.92s17.23,10.06,18.14,20.09c.19,2.17-1.09,2.11-2.4,2.17-6.18.33-12.31.1-18.22-2a11.77,11.77,0,0,1-8.22-10.88c-.32-5.11-2.52-9-5.27-13.09-8.08-11.92-12.35-25.31-14.41-39.47-.19-1.31-.46-2.62-.75-3.92-.06-.27-.37-.49-.8-1a114.91,114.91,0,0,1-9.89,32.15c-.89,1.82-.69,2.75,1.4,3.06a11.32,11.32,0,0,1,1.41.5c13.94,4.26,16.39,9.52,16.26,25.71,0,2.4-.79,3.27-3.33,2.52-5.12-1.52-10.13-3.24-14.6-6.23s-5.33-4.67-6.64-14c-2.51,3.57-5.29,6-4.43,11,2.31,13.5-6.68,24-20.16,24.69-2,.1-2.3-.69-2.32-2.23-.07-5.85.24-11.63,2.11-17.26,1.72-5.16,5.43-8.23,10.59-8.54,4.87-.29,7.49-2.67,9.52-6.63,1.77-3.46,4.29-6.55,5.64-11.25-11.36,8.22-19.86,2.71-28.25-4C-320.94-95-312.27-96.06-300.5-85.9c4.49-10.2,6.07-21,7.95-31.7,2.61-14.88,3.09-30.11,7.45-44.72a143.53,143.53,0,0,1,11.73-28.47A15.24,15.24,0,0,1-272-192.9a3.43,3.43,0,0,1,4.89-.8c2,1.28.21,2.72-.43,3.81a133.41,133.41,0,0,0-16.79,47.15,122.6,122.6,0,0,0,3.53,51.87c1.2,4.3,6.08,4.15,8.81,6.65C-272-82.1-273.3-82.51-274.57-82.84Z" transform="translate(745.96 223.36)"/><path class="cls-2" d="M-274.57-82.84A2.89,2.89,0,0,0-272-84.22c1.42.42,2.87.76,4.26,1.26,5.14,1.84,9.53,2.3,14.35-2.05,5.91-5.36,17.94-3.46,23.28,2.46,1.11,1.23.72,2-.28,2.87-3.79,3.52-7.72,6.88-12.56,8.88a10.35,10.35,0,0,1-12-2.47c-3.61-3.94-8-5.48-12.82-6.76C-270.14-80.65-272.63-81.13-274.57-82.84Z" transform="translate(745.96 223.36)"/><path class="cls-3" d="M-284.75-192.65c-1.72-1.8-3.38-3.1-5.91-.84-3,2.66-6.23,5-9.39,7.42-19.6,15.17-38.78,30.95-60.54,43-18.15,10.09-37,18-58.34,18.26-4.23.06-5.14-1.12-5-5.19.42-11.52-3.31-16.34-13.63-19.49-2.16-.65-2.95-.1-3.91,1.57-4.47,7.76-2.91,14.74,4.5,19.93,1.12.79,2.73,1.1,3.17,2.75-7.33,1.26-10.59,4.07-12.74,11-1.39,4.48-1.62,9.15-2.09,13.78-.2,1.93.16,3,2.73,2.78,13.7-1.33,20.25-7.38,21.76-20.76.24-2.08.62-2.87,2.89-2.75,7.91.42,15.76-.44,24.05-1.23-6.6,5.9-9.76,14.19-15.44,20.68-5.89,6.73-5.9,12.78-.12,19.6a75.44,75.44,0,0,0,7.12,7c1.88,1.69,2.72,1.15,3.67-.8,4.93-10.17,5.93-18.18-2.22-25.43-1.39-1.24-2.09-2.32-1-4.23,5.2-9,11.87-16.72,21.47-20.81A283.53,283.53,0,0,0-353.21-141c1-.2,2.76-1.91,2.09,1.08-10,11.71-16.09,25.44-21.19,39.8-2.28,6.41-3.24,13.43-9.14,18.38-11.85,10-21.45,21.79-27,36.51a8,8,0,0,1-2.68,3.47c-3.75,3-7.5,6.08-11.07,9.31-5.26,4.77-10.6,7.29-18.06,4.44-6-2.28-12.6-.76-16.23,4.51-3.36,4.87-5.11,10.9-9.11,16,5.62-.74,10.45-.06,14.77,3.4,4,3.22,8.26,6.17,12.54,9,2.06,1.38,2.39,2.25.27,4-10.41,8.29-20.55,16.94-32.18,23.55a144.24,144.24,0,0,1-31.13,12.89c4.78-6.64,2.24-13.39,1.21-20-1.34-8.66,0-11.27,7.77-15.62,2.19-1.22,4.92-1.92,6.16-5.14-2.81-.14-5.24-.45-7.65-.34A15.51,15.51,0,0,1-501,2.5c-8.14-3.66-13.46-2.23-19.35,4.6-14.26,16.55-30.37,31.19-47,45.28-1.32,1.12-2.52,2-4.42,1.73-5.34-.78-10.77-1-16.43-2.69,4-6.11,4.95-12.09-.23-17.56a103.92,103.92,0,0,0-9-7.83c-2-1.66-2.91-1.1-3.77,1.37-2.4,6.88-4.37,13.65,1.23,21.69-6-2.06-10.57-3.76-15.23-5.2-3.75-1.16-5.06-2.76-4-7.16,2.07-8.87-1.64-14.55-10.25-17.85-4.07-1.56-8.38-2-12.58-3-2.57-.6-3.32.36-3,2.77,1,8.55,2.24,17,11.56,21.48-10,4.21-11.71,13.34-14.59,21.7-.38,1.09-.15,1.72,1.06,2.26,5.69,2.53,19.73-1.79,23.68-7,2.34-3.11,1.83-9,5.48-9.61s7.78,2.3,11.78,3.38a321.35,321.35,0,0,0,31.73,6.69c-3.51,3-6.42,5.33-9.23,7.81-1.19,1.06-3.55,1.94-2.91,3.61.79,2,3.3,1,4.91.8,3.85-.39,7.66-1.27,12.06-2.06A23.61,23.61,0,0,1-571,69.9c-5.55,7.08-11.63,13.69-17.81,20.22-1.13,1.19-3.9,2.71-1.66,4.78,1.77,1.63,4.18.8,5.86-.87,2.23-2.23,4.39-4.55,6.43-7a37,37,0,0,1,52.83-3.62c-23.19,17.36-55.93,27.12-82.53,29.61-3.23.3-4-.68-3.92-3.74.21-6-1.24-11.43-7.53-13.85-5-1.94-10.37-2.24-15.72-2.3-1.91,0-3,.57-2.45,2.57,2,7,3.67,14.22,11.53,17.8-10.34,1.08-12.89.63-21.15-3.67-6.52-3.39-11.79-2.76-17.41,2.09-3.7,3.18-6.47,7.11-9.16,11.13-1.3,2-1.4,3.17,1.2,4,15.14,4.76,21.57,4,29.42-7.92a4.94,4.94,0,0,1,4.9-2.48c5.64.11,11.26.49,16.93.29,34.21-1.25,66.36-9.35,95.42-28,3.09-2,3.47-.29,3.54,2,.07,2.61-1.88,4.55-2.82,6.83-5.92,14.3-16,23.81-31.34,27.33-3.51.81-6.33,1.16-9.37-2-5-5.09-9.07-5.1-15.32-1.63a42.3,42.3,0,0,0-9.33,7.45c-.78.79-1.77,1.47-.58,2.87,4.88,5.74,17.83,7.74,23.31,2.19,7.53-7.64,18.41-5.35,26.32-11.22a4.29,4.29,0,0,1-.91,2.71c-14.81,18.38-33.38,31.79-54.79,41.5-2.2,1-3.61.37-5.45-.67-8.7-4.93-13.81-4.09-20.83,3.19a55.56,55.56,0,0,0-7.3,9.47c-1.19,1.93-.91,2.89,1.26,3.64,15.47,5.33,22.42,3.67,29.62-8.19,3-4.93,7.5-6.23,12.65-8.5-1.63,3.09-2.69,5.46-2.48,8.28.6,8,5.5,13.73,9.94,19.73,1.24,1.68,1.93,0,2.63-.74,10-10,11-19.37,2.85-30.62-1.89-2.62-1.53-3.62,1-5.25A138.26,138.26,0,0,0-538,125.15c.59-.76,1.11-1.72,2.18-1.66,2.49,9.06,10.35,12,17.54,15.55,1.81.9,2.15-.73,2.4-2.11,2.44-13.18,1.08-19.65-9.61-24.83-1-.47-2.87-1-1.92-2.28,4-5.18,4.37-12.59,10.43-16.41,2.55-1.6,3.43-3.8,2.66-6.84-1.29-5,.85-9,5.75-11,1.21-.5,2.75-.49,3.31-1.94C-503.16,68-498,65.08-494,61.2c17-16.5,35.67-31,54.17-45.68,4.34-3.45,8-6.91,14.66-5.08,5.47,1.51,5.72.56,3.91,6.11a4.12,4.12,0,0,0-.13,2c1,5.06-.83,9.91-1,14.84-.28,8.47-5.69,12.58-12.17,16.08-2.62,1.41-5,1.66-7.78-.28-4.48-3-9.38-3.17-13.91.34A48,48,0,0,0-466,60.16c-.78,1.11-1.55,2,.28,3.19,8.45,5.4,20.28,3.79,25.79-4.53,3.44-5.18,8.56-7.19,13.52-10.42-1.66,12.73-11.73,30.16-22,39.22-2.51,2.21-3.81,2-6-.29-4.7-4.87-10.33-6.55-16.78-3.48-5,2.39-9.18,6-13.26,9.67-.81.74-1.77,1.34-.6,2.82,5.47,6.92,19.95,9.18,27.38,3.88,3.76-2.68,7.13-5.89,11.5-9.56-1.84,5.28-2.17,9.49.45,13.65,3.16,5,7.44,8.91,11.85,12.73,1.59,1.39,2.62,1.09,3.44-.71,6.65-14.63,7-21.44-5.15-31.2-2-1.6-3-2.39-1.07-5,8.94-12,13.79-25.71,16.6-40.22,1.6-8.29,3-16.6,5.8-24.71,1.11,7.1,6.73,13.17,3.42,21.3-1.61,4,.38,8.12,4.11,11a43.47,43.47,0,0,0,12.38,6.3c1.32.46,2.38.88,3.05-1.11A18.23,18.23,0,0,0-402,29.74c-3.22-1.22-5-3.07-5.8-6s-1.45-6.13-2.07-9.22c-.18-.92-.53-2.37.6-2.67,4-1.07,5.11-5.33,8-7.29,9.65-6.57,14.18-16.06,16.48-26.89a22.65,22.65,0,0,1,6.94-12.28,202.46,202.46,0,0,1,21.46-17.87c1.13-.8,3-3,1.49-2.92-3.48.18-6-3.57-10.06-1.17-7,4.2-14.58,7.51-22.47,11.47a13.26,13.26,0,0,1,.49-2.49,292.31,292.31,0,0,0,14.72-39.65c9.32-31.33,27.39-56.2,53.49-75.6,11.09-8.24,21.79-17,32.64-25.53C-284.79-189.49-282.63-190.42-284.75-192.65ZM-503.28,64.76c-2.77,2.7-5.84-.33-8.78-.56-.7-.06-.05-1.38.4-2.08,2.27-3.46,4.48-7,6.78-10.41a4.1,4.1,0,0,1,1.81-1.63c8.4-2.82,16.63-6.1,25.06-9.14C-486.55,48.88-495,56.69-503.28,64.76ZM-391.1-52.58c-2.53,3.9-8,4.5-13.19,7.13,5-13.47,13.48-22.83,23.41-31.18C-383.42-68.2-386.36-59.88-391.1-52.58Z" transform="translate(745.96 223.36)"/><circle class="cls-4" cx="115.09" cy="358.32" r="7.55"/><path class="cls-5" d="M-534.69,72.67c6-.93,11.45-1.33,16.49-3.7a5.15,5.15,0,0,1,6.25,1.82c1.35,2-1.3,3-2.52,4.15C-521.23,81.22-527.87,80.59-534.69,72.67Z" transform="translate(745.96 223.36)"/><circle class="cls-4" cx="127.64" cy="351.5" r="5"/><circle class="cls-4" cx="322.83" cy="302.55" r="7.55"/><circle class="cls-4" cx="119.18" cy="347.03" r="3.22"/><circle class="cls-4" cx="326.57" cy="289.24" r="4.73"/><circle class="cls-4" cx="353.75" cy="111.81" r="5.64"/><circle class="cls-4" cx="349.57" cy="121.27" r="3.19"/><circle class="cls-4" cx="356.63" cy="120.64" r="2.04"/><circle class="cls-4" cx="441.56" cy="171.9" r="3.8"/></g></svg>